# xmcd CD database file
#
# Track frame offsets:
#	151
#	12454
#	31383
#	45900
#	56570
#	70932
#	81909
#	90398
#	106599
#	119005
#	142513
#	159824
#	172701
#	182210
#	192021
#	203169
#
# Disc length: 2870 seconds
#
# Revision: 0
# Processed by: cddbd v1.4PL0 Copyright (c) Steve Scherf et al.
# Submitted via: CDex 1.50Beta3
#
DISCID=bd0b3410
DTITLE=Nikolai Minh - Antologiya Dzhaza - Progulka
DYEAR=1900
DGENRE=Jazz
TTITLE0=Progulka
TTITLE1=James Kennedy
TTITLE2=Ploho varit kotelok
TTITLE3=Baltiyskiy marsh
TTITLE4=Dva Druga
TTITLE5=Grustit' ne nado
TTITLE6=Vstrecha
TTITLE7=Poi so mnoi
TTITLE8=Noch'u
TTITLE9=Vmeste
TTITLE10=Nad zalivom
TTITLE11=Liricheskoe nastroenie
TTITLE12=V dal'niy put'
TTITLE13=Svidanie
TTITLE14=Odinokaya garmon'
TTITLE15=Fokstrot
EXTD=
EXTT0=
EXTT1=
EXTT2=
EXTT3=
EXTT4=
EXTT5=
EXTT6=
EXTT7=
EXTT8=
EXTT9=
EXTT10=
EXTT11=
EXTT12=
EXTT13=
EXTT14=
EXTT15=
PLAYORDER=
